<svg xmlns="http://www.w3.org/2000/svg" viewBox="0 0 111.98 115.56"><defs><style>.cls-1{fill:#d4e1f4;}.cls-2{fill:#1ae5be;}.cls-3{fill:#651fff;}</style></defs><title>Ресурс 1</title><g id="Слой_2" data-name="Слой 2"><g id="Слой_1-2" data-name="Слой 1"><path class="cls-1" d="M49.33,48.8V10.32l4.83-7.57h-3L41.08,18.58V57.06h52V48.8Z"/><path class="cls-2" d="M44.28,115.56a11.4,11.4,0,1,1,11.39-11.39A11.4,11.4,0,0,1,44.28,115.56Zm0-17.28a5.89,5.89,0,1,0,5.89,5.89A5.89,5.89,0,0,0,44.28,98.28Z"/><path class="cls-2" d="M83.19,115.56a11.4,11.4,0,1,1,11.39-11.39A11.39,11.39,0,0,1,83.19,115.56Zm0-17.28a5.89,5.89,0,1,0,5.89,5.89A5.89,5.89,0,0,0,83.19,98.28Z"/><path class="cls-3" d="M111.49,36.36a2.7,2.7,0,0,0-2.26-1.14H92.31v5.5h13L96.09,65.1s0,0,0,0a6.67,6.67,0,0,1-6.33,4.48H33.6L26.17,29.25A12.15,12.15,0,0,0,14.12,19H2.75a2.75,2.75,0,0,0,0,5.5H14.12a6.68,6.68,0,0,1,6.62,5.66s0,.05,0,.07l8.78,47.7a12.19,12.19,0,0,0,12,9.85H97.41a2.75,2.75,0,0,0,0-5.5H41.52a6.7,6.7,0,0,1-6.58-5.38l-.33-1.77H89.73A12.22,12.22,0,0,0,101.25,67l10.56-28.08A2.73,2.73,0,0,0,111.49,36.36Z"/><path class="cls-3" d="M40.84,40.64H24.94a2.75,2.75,0,1,1,0-5.5h15.9a2.75,2.75,0,0,1,0,5.5Z"/><path class="cls-3" d="M74.35,59.81a2.75,2.75,0,0,1-2.75-2.75V40.62l-9-3.78V57.06a2.75,2.75,0,0,1-5.5,0V32.7a2.75,2.75,0,0,1,3.81-2.54l14.53,6.1a2.73,2.73,0,0,1,1.69,2.53V57.06A2.75,2.75,0,0,1,74.35,59.81Z"/><path class="cls-2" d="M67.08,21.33a2.75,2.75,0,0,1-2.75-2.75V2.75a2.75,2.75,0,0,1,5.5,0V18.58A2.75,2.75,0,0,1,67.08,21.33Z"/><path class="cls-2" d="M93.09,59.81h-52a2.75,2.75,0,0,1-2.75-2.75V18.58a2.75,2.75,0,0,1,.43-1.48L48.85,1.27A2.75,2.75,0,0,1,51.17,0H83a2.76,2.76,0,0,1,2.32,1.27L95.41,17.1a2.75,2.75,0,0,1,.43,1.48V57.06A2.75,2.75,0,0,1,93.09,59.81Zm-49.26-5.5H90.34V19.38L81.49,5.5H52.68L43.83,19.38Z"/><path class="cls-2" d="M93.09,21.33h-52a2.75,2.75,0,0,1,0-5.5h52a2.75,2.75,0,1,1,0,5.5Z"/></g></g></svg>