<svg xmlns="http://www.w3.org/2000/svg" viewBox="0 0 138.1 111.33"><defs><style>.cls-1{fill:#757575;}.cls-2{fill:#616161;}.cls-3{fill:#7e57c2;}.cls-4{fill:#ff3939;}.cls-5{fill:#00ddc1;}.cls-6{fill:#ececf1;}.cls-7{fill:#e2e2e7;}.cls-8{fill:#673ab7;}</style></defs><title>Ресурс 1</title><g id="Слой_2" data-name="Слой 2"><g id="Слой_1-2" data-name="Слой 1"><path class="cls-1" d="M102.76,68.5a18.75,18.75,0,0,0-1.91-14.89L86.74,30.19A18.71,18.71,0,0,0,59.8,24.71L4.67,64.48A11.21,11.21,0,0,0,1.59,79.33l16,26.61a11.2,11.2,0,0,0,14.57,4.21L93.11,80A18.61,18.61,0,0,0,102.76,68.5Z"/><path class="cls-2" d="M93.11,80,32.19,110.15a11.2,11.2,0,0,1-14.57-4.21l-8-13.31L93.79,41.9l7.06,11.71A18.68,18.68,0,0,1,93.11,80Z"/><path class="cls-3" d="M132.33,52.6a3.7,3.7,0,0,1-2.74-4.54A33.54,33.54,0,0,0,105.08,7.37a3.7,3.7,0,0,1-2.74-4.54A3.84,3.84,0,0,1,106.88.09a41.1,41.1,0,0,1,30,49.77A3.83,3.83,0,0,1,132.33,52.6Z"/><path class="cls-3" d="M117.84,49a3.6,3.6,0,0,1-2.7-4.48,19.11,19.11,0,0,0-13.65-22.64,3.7,3.7,0,0,1,1.78-7.18,25.86,25.86,0,0,1,15.92,12,25.8,25.8,0,0,1,3.12,19.65A3.6,3.6,0,0,1,117.84,49Z"/><path class="cls-3" d="M103.32,45.41a3.84,3.84,0,0,1-2.74-4.55,3.77,3.77,0,0,0-2.7-4.47,3.84,3.84,0,0,1-2.74-4.55,3.7,3.7,0,0,1,4.55-2.73,11.37,11.37,0,0,1,8.17,13.56A3.7,3.7,0,0,1,103.32,45.41Z"/><path class="cls-4" d="M73.28,36.81A3.73,3.73,0,1,0,72,41.94,3.73,3.73,0,0,0,73.28,36.81Z"/><path class="cls-5" d="M88.7,62.4a3.73,3.73,0,1,0-1.27,5.13A3.72,3.72,0,0,0,88.7,62.4Z"/><path class="cls-6" d="M60.49,44.52a3.74,3.74,0,1,0-1.27,5.13A3.74,3.74,0,0,0,60.49,44.52Z"/><path class="cls-6" d="M66.93,62.45a3.73,3.73,0,1,1,1.27-5.13A3.69,3.69,0,0,1,66.93,62.45Z"/><path class="cls-7" d="M75.91,70.11a3.73,3.73,0,1,0-1.27,5.13A3.73,3.73,0,0,0,75.91,70.11Z"/><path class="cls-6" d="M47.7,52.23a3.74,3.74,0,1,0-1.28,5.13A3.74,3.74,0,0,0,47.7,52.23Z"/><path class="cls-6" d="M54.14,70.16A3.74,3.74,0,1,1,55.41,65,3.7,3.7,0,0,1,54.14,70.16Z"/><path class="cls-7" d="M63.12,77.82a3.73,3.73,0,1,0-1.28,5.12A3.73,3.73,0,0,0,63.12,77.82Z"/><path class="cls-6" d="M38.8,88.12a3.69,3.69,0,0,1-5.12-1.27l-1.93-3.2-3.2,1.93a3.73,3.73,0,1,1-3.85-6.4l3.19-1.93L26,74.05a3.73,3.73,0,1,1,6.39-3.85l1.93,3.2,3.2-1.93a3.73,3.73,0,1,1,3.85,6.4L38.15,79.8,40.07,83A3.7,3.7,0,0,1,38.8,88.12Z"/><path class="cls-8" d="M100.58,40.86a3.74,3.74,0,0,0-.45-2.78l6.39-3.85a11.23,11.23,0,0,1,1.34,8.44,3.7,3.7,0,0,1-4.54,2.74A3.84,3.84,0,0,1,100.58,40.86Z"/><path class="cls-8" d="M115.14,44.47a18.75,18.75,0,0,0-2.28-14.06l6.33-3.81a25.8,25.8,0,0,1,3.12,19.65,3.69,3.69,0,1,1-7.17-1.78Z"/><path class="cls-8" d="M129.59,48.06a33.41,33.41,0,0,0-3.81-25.43l6.4-3.86a40.79,40.79,0,0,1,4.69,31.09,3.83,3.83,0,0,1-4.54,2.74A3.7,3.7,0,0,1,129.59,48.06Z"/><path class="cls-7" d="M38.8,88.12a3.69,3.69,0,0,1-5.12-1.27l-1.93-3.2-3.2,1.93a3.7,3.7,0,0,1-5.13-1.27l19.2-11.57a3.7,3.7,0,0,1-1.28,5.13L38.15,79.8,40.07,83A3.7,3.7,0,0,1,38.8,88.12Z"/><path class="cls-7" d="M54.14,70.16A3.7,3.7,0,0,1,49,68.89L55.41,65A3.7,3.7,0,0,1,54.14,70.16Z"/><path class="cls-7" d="M61.81,61.18l6.39-3.86a3.73,3.73,0,1,1-6.39,3.86Z"/></g></g></svg>