<svg xmlns="http://www.w3.org/2000/svg" viewBox="0 0 503.47 503.47"><defs><style>.cls-1{fill:#e4f2de;}.cls-2{fill:#c49ae9;}.cls-3{fill:#7ee1e6;}.cls-4{fill:#51565f;}</style></defs><title>Ресурс 3</title><g id="Слой_2" data-name="Слой 2"><g id="Слой_1-2" data-name="Слой 1"><path class="cls-1" d="M499.2,106.67V482.13a17.37,17.37,0,0,0-26.45-14.5,25.42,25.42,0,0,0-49.5,0,17.37,17.37,0,0,0-26.45,14.5H362.67V106.67Zm-494.93,0H140.8V499.2H4.27V106.67Zm204.8,256V482.13H140.8V4.27H362.67V482.13H294.4V362.67Z"/><polygon class="cls-2" points="209.07 482.13 294.4 482.13 294.4 362.67 209.07 362.67 209.07 482.13"/><path class="cls-3" d="M482.13,465.07a17.07,17.07,0,1,1,0,34.13H413.87a17.07,17.07,0,1,1,9.38-31.57,25.42,25.42,0,0,1,49.5,0A17.16,17.16,0,0,1,482.13,465.07ZM38.4,311.47c25.6,0,34.13,68.26,34.13,102.4a34.13,34.13,0,0,1-68.26,0C4.27,379.73,12.8,311.47,38.4,311.47Z"/><path class="cls-2" d="M55.47,157.87H89.6v51.2H55.47Zm358.4,102.4H448v51.2H413.87Zm0,102.4H448v51.2H413.87Zm0-204.8H448v51.2H413.87ZM55.47,260.27H89.6v51.2H55.47Zm136.53,0h34.13v51.2H192Zm0-204.8h34.13v51.2H192Zm85.33,0h34.14v51.2H277.33Zm0,204.8h34.14v51.2H277.33Zm0-102.4h34.14v51.2H277.33Zm-85.33,0h34.13v51.2H192Z"/><rect class="cls-1" x="123.73" y="482.13" width="256" height="17.07"/><path class="cls-4" d="M482.13,503.47H413.87a21.34,21.34,0,1,1,0-42.67,18.82,18.82,0,0,1,6.82.85c4.27-11.09,15.36-17.92,27.31-17.92s23,6.83,27.31,17.92a20.14,20.14,0,0,1,19.62,3.42V110.93H396.8a4.27,4.27,0,1,1,0-8.53H499.2a4,4,0,0,1,4.27,4.27V482.13A21.13,21.13,0,0,1,482.13,503.47Zm-68.26-34.14a12.8,12.8,0,0,0,0,25.6h68.26a12.8,12.8,0,0,0,0-25.6,16.07,16.07,0,0,0-6.82,1.71c-.86.85-2.56.85-4.27,0s-2.56-1.71-2.56-3.41c-2.56-9.39-11.09-16.22-20.48-16.22s-18.77,6.83-20.48,16.22c0,1.7-.85,2.56-2.56,3.41s-2.56,0-4.27,0A16.07,16.07,0,0,0,413.87,469.33ZM123.73,503.47a4,4,0,0,1-4.26-4.27V482.13a4,4,0,0,1,4.26-4.26H362.67a4.27,4.27,0,0,1,0,8.53H128v12.8A4,4,0,0,1,123.73,503.47Zm-85.33,0a4,4,0,0,1-4.27-4.27V452.27C15.36,449.71,0,433.49,0,413.87,0,384,6.83,307.2,38.4,307.2S76.8,384,76.8,413.87c0,19.62-15.36,35.84-34.13,38.4V499.2A4,4,0,0,1,38.4,503.47Zm0-187.74c-19.63,0-29.87,58-29.87,98.14A30.24,30.24,0,0,0,38.4,443.73a30.24,30.24,0,0,0,29.87-29.86C68.27,373.76,58,315.73,38.4,315.73ZM362.67,452.27A4,4,0,0,1,358.4,448V8.53H145.07V448a4.27,4.27,0,1,1-8.54,0V4.27A4,4,0,0,1,140.8,0H362.67a4,4,0,0,1,4.26,4.27V448A4,4,0,0,1,362.67,452.27Zm-68.27,0a4,4,0,0,1-4.27-4.27V366.93h-76.8V448a4.27,4.27,0,1,1-8.53,0V366.93H174.93a4.27,4.27,0,0,1,0-8.53h153.6a4.27,4.27,0,1,1,0,8.53H298.67V448A4,4,0,0,1,294.4,452.27ZM448,418.13H413.87a4,4,0,0,1-4.27-4.26v-51.2a4,4,0,0,1,4.27-4.27H448a4,4,0,0,1,4.27,4.27v51.2A4,4,0,0,1,448,418.13Zm-29.87-8.53h25.6V366.93h-25.6ZM448,315.73H413.87a4,4,0,0,1-4.27-4.26v-51.2a4,4,0,0,1,4.27-4.27H448a4,4,0,0,1,4.27,4.27v51.2A4,4,0,0,1,448,315.73Zm-29.87-8.53h25.6V264.53h-25.6Zm-106.66,8.53H277.33a4,4,0,0,1-4.26-4.26v-51.2a4,4,0,0,1,4.26-4.27h34.14a4,4,0,0,1,4.26,4.27v51.2A4,4,0,0,1,311.47,315.73ZM281.6,307.2h25.6V264.53H281.6Zm-55.47,8.53H192a4,4,0,0,1-4.27-4.26v-51.2A4,4,0,0,1,192,256h34.13a4,4,0,0,1,4.27,4.27v51.2A4,4,0,0,1,226.13,315.73Zm-29.86-8.53h25.6V264.53h-25.6ZM89.6,315.73a4,4,0,0,1-4.27-4.26V264.53H59.73v12.8a4.27,4.27,0,1,1-8.53,0V260.27A4,4,0,0,1,55.47,256H89.6a4,4,0,0,1,4.27,4.27v51.2A4,4,0,0,1,89.6,315.73ZM4.27,281.6A4,4,0,0,1,0,277.33V106.67a4,4,0,0,1,4.27-4.27h102.4a4.27,4.27,0,0,1,0,8.53H8.53v166.4A4,4,0,0,1,4.27,281.6ZM448,213.33H413.87a4,4,0,0,1-4.27-4.26v-51.2a4,4,0,0,1,4.27-4.27H448a4,4,0,0,1,4.27,4.27v51.2A4,4,0,0,1,448,213.33Zm-29.87-8.53h25.6V162.13h-25.6Zm-106.66,8.53H277.33a4,4,0,0,1-4.26-4.26v-51.2a4,4,0,0,1,4.26-4.27h34.14a4,4,0,0,1,4.26,4.27v51.2A4,4,0,0,1,311.47,213.33ZM281.6,204.8h25.6V162.13H281.6Zm-55.47,8.53H192a4,4,0,0,1-4.27-4.26v-51.2A4,4,0,0,1,192,153.6h34.13a4,4,0,0,1,4.27,4.27v51.2A4,4,0,0,1,226.13,213.33Zm-29.86-8.53h25.6V162.13h-25.6ZM89.6,213.33H55.47a4,4,0,0,1-4.27-4.26v-51.2a4,4,0,0,1,4.27-4.27H89.6a4,4,0,0,1,4.27,4.27v51.2A4,4,0,0,1,89.6,213.33ZM59.73,204.8h25.6V162.13H59.73Zm251.74-93.87H277.33a4,4,0,0,1-4.26-4.26V55.47a4,4,0,0,1,4.26-4.27h34.14a4,4,0,0,1,4.26,4.27v51.2A4,4,0,0,1,311.47,110.93ZM281.6,102.4h25.6V59.73H281.6Zm-55.47,8.53H192a4,4,0,0,1-4.27-4.26V55.47A4,4,0,0,1,192,51.2h34.13a4,4,0,0,1,4.27,4.27v51.2A4,4,0,0,1,226.13,110.93Zm-29.86-8.53h25.6V59.73h-25.6Z"/></g></g></svg>