<svg xmlns="http://www.w3.org/2000/svg" viewBox="0 0 155 127.54"><defs><style>.cls-1{fill:#d4e1f4;}.cls-2{fill:#b9f9ec;}.cls-3{fill:#651fff;}.cls-4{fill:#1ae5be;}</style></defs><title>Ресурс 3</title><g id="Слой_2" data-name="Слой 2"><g id="Слой_1-2" data-name="Слой 1"><path class="cls-1" d="M123.69,114.57h.37a12.65,12.65,0,0,1,4.73-5,11.09,11.09,0,0,0-5.5-1.72l-.54,0a12.55,12.55,0,0,0-11.09,6.69h-.37a9.57,9.57,0,0,0-9.57,9.57h12.4A9.57,9.57,0,0,1,123.69,114.57Z"/><path class="cls-2" d="M133.43,3.1,115,93.76h12.4l12.28-60.24Z"/><path class="cls-1" d="M85.7,56.14V37.51H79.5V56.14L90.33,67v-6.2Z"/><path class="cls-1" d="M54.23,31.29,3.1,82.42H15.5L60.43,37.49Z"/><path class="cls-1" d="M18.08,82.42h12.4v42H18.08Z"/><path class="cls-3" d="M108.23,83.61a3.1,3.1,0,0,0-.68-3.38L93.43,66.1V37.51a3.1,3.1,0,0,0-3.1-3.1H79.5a3.1,3.1,0,0,0-3.1,3.1V49.07l-20-20a3.1,3.1,0,0,0-4.38,0L.91,80.23A3.1,3.1,0,0,0,3.1,85.52H15v38.9a3.1,3.1,0,0,0,3.1,3.1H90.39a3.1,3.1,0,0,0,3.1-3.1V85.52h11.87A3.1,3.1,0,0,0,108.23,83.61ZM82.6,51.74h4.63v7.75L82.6,54.86Zm4.63-11.13v4.93H82.6V40.61ZM63.16,121.32H45.3v-30H63.16Zm27.23-42a3.1,3.1,0,0,0-3.1,3.1v38.9H69.36V88.25a3.1,3.1,0,0,0-3.1-3.1H42.2a3.1,3.1,0,0,0-3.1,3.1v33.07H21.18V82.42a3.1,3.1,0,0,0-3.1-3.1h-7.5L54.23,35.68,97.88,79.32Z"/><path class="cls-3" d="M137,116.22l0-.09a14.8,14.8,0,0,0-13.61-11.32l-.65,0a15.63,15.63,0,0,0-12.87,6.76,12.69,12.69,0,0,0-11.26,12.59h6.2a6.49,6.49,0,0,1,6.47-6.47h.21a3.09,3.09,0,0,0,2.9-1.65,9.44,9.44,0,0,1,8.35-5h.41a8.56,8.56,0,0,1,7.78,6.44c.11,2.77,0,6.56,0,6.6l6.2.2c0-.18.14-4.36,0-7.39A3.19,3.19,0,0,0,137,116.22Z"/><path class="cls-4" d="M136.46,2.48a3.1,3.1,0,0,0-6.07,0L111.91,93.14a3.11,3.11,0,0,0,2.42,3.66,3.18,3.18,0,0,0,.62.06h16v24.48H4.51v6.2H146v-6.2h-8.84V96.86H151.9a3.1,3.1,0,0,0,3.1-3.1,3.18,3.18,0,0,0-.06-.62ZM123.71,66.3l1.19-5.83h17l1.19,5.83Zm20.69,6.2,1.19,5.83H121.26l1.19-5.83Zm-3.71-18.23H126.16l1.19-5.83H139.5Zm-7.26-35.65,4.81,23.62h-9.63Zm-14.68,72L120,84.53h26.86l1.24,6.13Z"/></g></g></svg>