<svg id="Слой_1" data-name="Слой 1" xmlns="http://www.w3.org/2000/svg" viewBox="0 0 400 301"><defs><style>.cls-1{fill:#d4e1f4;}.cls-2{fill:#1ae5be;}.cls-3{fill:#651fff;}</style></defs><title>image</title><path class="cls-1" d="M50,139.34a40,40,0,0,1,40-40H390c1,0,2,0,3,.13v-3.7a40,40,0,0,0-40-40H53a40,40,0,0,0-40,40V297.09A40,40,0,0,0,50,337Z" transform="translate(0 -49)"/><path class="cls-2" d="M160.29,203.36a61,61,0,1,1,61-61A61,61,0,0,1,160.29,203.36Zm0-102a41,41,0,1,0,41,41A41,41,0,0,0,160.29,101.41Z" transform="translate(0 -49)"/><path class="cls-3" d="M400,99a50,50,0,0,0-50-50H50A50,50,0,0,0,0,99V300a50,50,0,0,0,50,50H350a50,50,0,0,0,50-50ZM50,69H350c16.54,0,30,13.8,30,30.34V282.71l-88.84-57.07a32.73,32.73,0,0,0-42.52,4.25l-28.37,29.56-67.58-41.93a33,33,0,0,0-37.46,1.91L20,282.5V99.34C20,82.8,33.46,69,50,69ZM20.52,306.32,126.61,236c.23-.16.47-.37.69-.55a12.94,12.94,0,0,1,14.84-.88l64,39.84L151.94,331H50A30.19,30.19,0,0,1,20.52,306.32ZM350,331H179.66l83.41-87.09a12.83,12.83,0,0,1,16.75-1.7c.12.08.24.12.36.2l99.3,63.94A30.17,30.17,0,0,1,350,331Z" transform="translate(0 -49)"/></svg>