<svg id="Слой_1" data-name="Слой 1" xmlns="http://www.w3.org/2000/svg" viewBox="0 0 443 404.79"><defs><style>.cls-1{fill:#d4e1f4;}.cls-2{fill:#1ae5be;}.cls-3{fill:#651fff;}</style></defs><title>layers</title><path class="cls-1" d="M69.9,112.94,251.46,42.23l-30-11.67L10,112.94,221.5,195.32l30-11.67Z" transform="translate(0 -20.58)"/><path class="cls-2" d="M221.5,315.34a10,10,0,0,1-3.62-.69L6.37,232.28a10,10,0,0,1-.14-18.56l91.19-37.08A10,10,0,1,1,105,195.09l-.1,0L37,222.77,221.5,294.63l184.33-71.79-65.55-26.26A10,10,0,1,1,347.71,178l89,35.67a10,10,0,0,1-.09,18.57L225.13,314.65A10.26,10.26,0,0,1,221.5,315.34Z" transform="translate(0 -20.58)"/><path class="cls-3" d="M436.64,103.63,225.13,21.26a10,10,0,0,0-7.25,0L6.36,103.63a10,10,0,0,0,0,18.61l211.52,82.38a9.94,9.94,0,0,0,7.24,0l211.52-82.38a10,10,0,0,0,0-18.61Zm-215.14,81-184-71.66,184-71.66,184,71.66Z" transform="translate(0 -20.58)"/><path class="cls-3" d="M436.67,323.71l-86.61-34.09a10,10,0,0,0-7.31,18.59L405.62,333,221.5,404.66,37,332.82l67.37-27.31A10,10,0,1,0,96.9,287L6.24,323.74a10,10,0,0,0,.12,18.56l211.52,82.38a9.94,9.94,0,0,0,7.24,0L436.64,342.3a10,10,0,0,0,0-18.59Z" transform="translate(0 -20.58)"/></svg>