<svg xmlns="http://www.w3.org/2000/svg" viewBox="0 0 120.2 119"><defs><style>.cls-1{fill:#d4e1f4;}.cls-2{fill:#1ae5be;}.cls-3{fill:#651fff;}</style></defs><title>Ресурс 4</title><g id="Слой_2" data-name="Слой 2"><g id="Слой_1-2" data-name="Слой 1"><path class="cls-1" d="M44.07,104.32V72.86h-9v31.46A11.6,11.6,0,0,0,51.15,115,11.6,11.6,0,0,1,44.07,104.32Z"/><path class="cls-1" d="M83.64,3.08H15a12,12,0,0,0-12,12v4a11.84,11.84,0,0,0,.73,4.16A12,12,0,0,1,15,15.4H83.64a12,12,0,0,1,11.28,7.87,12.08,12.08,0,0,0,.74-4.16v-4A12,12,0,0,0,83.64,3.08Z"/><path class="cls-2" d="M46.65,76.14a3,3,0,0,1-3-3V50a3,3,0,0,1,3-3h54.1a13.44,13.44,0,0,0,0-26.88H95.66a3,3,0,1,1,0-6h5.09a19.45,19.45,0,1,1,0,38.9H49.65V73.13A3,3,0,0,1,46.65,76.14Z"/><path class="cls-3" d="M98.57,15a15,15,0,0,0-15-15H15A15,15,0,0,0,0,15v3.9A15,15,0,0,0,15,34H83.54a15,15,0,0,0,15-15Zm-6,3.9a9,9,0,0,1-9,9H15a9,9,0,0,1-9-9V15a9,9,0,0,1,9-9H83.54a9,9,0,0,1,9,9Z"/><path class="cls-3" d="M58.24,69.72H35.05a3,3,0,0,0-2.9,3.14v31.46a14.58,14.58,0,1,0,29.15,0V72.86A3.16,3.16,0,0,0,58.24,69.72Zm-3,34.6a8.57,8.57,0,1,1-17.13,0V75.73H55.29Z"/></g></g></svg>