<svg xmlns="http://www.w3.org/2000/svg" viewBox="0 0 84.59 97"><defs><style>.cls-1{fill:#ffc850;}.cls-2{fill:#ffdc64;}.cls-3{fill:#fff082;}.cls-4{fill:#ebaf4b;}</style></defs><title>Ресурс 2</title><g id="Слой_2" data-name="Слой 2"><g id="Слой_1-2" data-name="Слой 1"><path class="cls-1" d="M27.56,51.29a3.32,3.32,0,0,0,2.49,2.79l15.12,3.78a.7.7,0,0,1,0,1.36L30.05,63a3.31,3.31,0,0,0-2.49,2.79l-4,29.38a.7.7,0,0,1-1.39,0l-4-29.38A3.31,3.31,0,0,0,15.66,63L.53,59.22a.7.7,0,0,1,0-1.36l15.13-3.78a3.31,3.31,0,0,0,2.49-2.79l4-29.38a.7.7,0,0,1,1.39,0C24.8,31.05,27.31,49.48,27.56,51.29Z"/><path class="cls-2" d="M61,20.63a2.15,2.15,0,0,1-1.67-1.78L56.76.45a.53.53,0,0,0-1,0L53.1,18.85a2.15,2.15,0,0,1-1.66,1.78L41.66,23a.53.53,0,0,0,0,1l9.78,2.34a2.18,2.18,0,0,1,1.66,1.79l2.61,18.34a.53.53,0,0,0,1,0l2.61-18.34A2.18,2.18,0,0,1,61,26.34L70.8,24a.52.52,0,0,0,0-1Z"/><path class="cls-3" d="M76.77,76.25a1.76,1.76,0,0,1-1.34-1.45c-.38-2.77-1.37-9.83-2-14.22a.52.52,0,0,0-1,0l-2,14.21a1.75,1.75,0,0,1-1.33,1.45l-7.43,1.81a.53.53,0,0,0,0,1l7.43,1.81a1.74,1.74,0,0,1,1.33,1.45l2,14.21a.53.53,0,0,0,1,0l2-14.21a1.75,1.75,0,0,1,1.33-1.45l7.43-1.81a.52.52,0,0,0,0-1Z"/><path class="cls-4" d="M23.55,95.17l3.53-25.89a151.9,151.9,0,0,1-8.44-21.55l-.49,3.56a3.31,3.31,0,0,1-2.49,2.79L.53,57.86a.7.7,0,0,0,0,1.36L15.66,63a3.31,3.31,0,0,1,2.49,2.79l4,29.38A.7.7,0,0,0,23.55,95.17Z"/><path class="cls-1" d="M53.34,17.2l-.24,1.65a2.15,2.15,0,0,1-1.66,1.78L41.66,23a.53.53,0,0,0,0,1l9.78,2.34a2.18,2.18,0,0,1,1.66,1.79l2.61,18.34a.53.53,0,0,0,1,0L59.1,30.05A40.41,40.41,0,0,1,53.34,17.2Z"/><path class="cls-2" d="M70.42,82.34l2,14.21a.53.53,0,0,0,1,0l1.86-13.32a21.75,21.75,0,0,1-4.76-9.33l-.13.9a1.75,1.75,0,0,1-1.33,1.45l-7.43,1.81a.53.53,0,0,0,0,1l7.43,1.81A1.74,1.74,0,0,1,70.42,82.34Z"/></g></g></svg>