<svg xmlns="http://www.w3.org/2000/svg" viewBox="0 0 29.94 46.93"><defs><style>.cls-1{fill:#ffdc64;}.cls-2{fill:#ffc850;}</style></defs><title>Ресурс 4</title><g id="Слой_2" data-name="Слой 2"><g id="Слой_1-2" data-name="Слой 1"><path class="cls-1" d="M19.77,20.63a2.15,2.15,0,0,1-1.66-1.78L15.5.45a.53.53,0,0,0-1.05,0l-2.61,18.4a2.15,2.15,0,0,1-1.66,1.78L.4,23a.53.53,0,0,0,0,1l9.78,2.34a2.18,2.18,0,0,1,1.66,1.79l2.61,18.34a.53.53,0,0,0,1.05,0l2.61-18.34a2.18,2.18,0,0,1,1.66-1.79L29.54,24a.52.52,0,0,0,0-1Z"/><path class="cls-2" d="M12.07,17.2l-.23,1.65a2.15,2.15,0,0,1-1.66,1.78L.4,23a.53.53,0,0,0,0,1l9.78,2.34a2.18,2.18,0,0,1,1.66,1.79l2.61,18.34a.53.53,0,0,0,1.05,0l2.33-16.42A40.86,40.86,0,0,1,12.07,17.2Z"/></g></g></svg>