<svg id="Слой_1" data-name="Слой 1" xmlns="http://www.w3.org/2000/svg" viewBox="0 0 464 457"><defs><style>.cls-1{fill:#d4e1f4;}.cls-2{fill:#651fff;}.cls-3{fill:#1ae5be;}</style></defs><title>user</title><path class="cls-1" d="M123.52,128.92a95.64,95.64,0,0,1,95.64-95.64c3.1,0,6.1.2,9.09.4A95.66,95.66,0,1,0,160.1,204.17,95.64,95.64,0,0,1,123.52,128.92Z" transform="translate(0 -3.3)"/><path class="cls-1" d="M219.06,268.33a161.29,161.29,0,0,1,33.58,3.5,157.7,157.7,0,0,0-83.55-23.49c-88,.2-159.3,70.46-159.1,166.09l51-.1C70.06,329.09,137.31,268.53,219.06,268.33Z" transform="translate(0 -3.3)"/><path class="cls-1" d="M284.12,380.35a99.94,99.94,0,0,1,154-84A99.94,99.94,0,1,0,281.42,419,98.64,98.64,0,0,0,300,434.42,99.15,99.15,0,0,1,284.12,380.35Z" transform="translate(0 -3.3)"/><path class="cls-2" d="M169.19,214.56A105.63,105.63,0,1,0,63.56,108.93,105.63,105.63,0,0,0,169.19,214.56Zm0-191.27a85.65,85.65,0,1,1-85.64,85.64A85.64,85.64,0,0,1,169.19,23.29Z" transform="translate(0 -3.3)"/><path class="cls-2" d="M169.09,258.33h.3a146.71,146.71,0,0,1,102.34,40.88l13.88-14.39a166.65,166.65,0,0,0-116.22-46.47h-.3c-45.77.1-88.24,17.88-119.72,50.27C17.39,321.29-.1,366,0,414.43a10.35,10.35,0,0,0,2.9,7.1,9.93,9.93,0,0,0,7.09,2.9l266.83-.5v-20l-256.53.5c2.1-39.28,17.29-75.15,43.37-101.83C91.34,274.12,128.82,258.43,169.09,258.33Z" transform="translate(0 -3.3)"/><path class="cls-2" d="M387.75,319.89l-48.27,39.28-17.69-20.69a10,10,0,1,0-15.19,13l24,28.09a10,10,0,0,0,7.59,3.49,9.83,9.83,0,0,0,6.3-2.2l55.86-45.47a10,10,0,1,0-12.59-15.49Z" transform="translate(0 -3.3)"/><path class="cls-3" d="M354.07,240.44a109.38,109.38,0,1,0,77.9,32A109.93,109.93,0,0,0,354.07,240.44Zm0,199.87A89.94,89.94,0,1,1,444,350.37,89.94,89.94,0,0,1,354.07,440.31Z" transform="translate(0 -3.3)"/></svg>