<svg id="Слой_1" data-name="Слой 1" xmlns="http://www.w3.org/2000/svg" viewBox="0 0 399 394.4"><defs><style>.cls-1{fill:#651fff;}.cls-2{fill:#1ae5be;}</style></defs><title>wand</title><path class="cls-1" d="M10,397.39a10,10,0,0,1-7.14-16.94L200.06,178.67a10,10,0,1,1,14.48,13.72l-.21.22L17.11,394.39A9.94,9.94,0,0,1,10,397.39Z" transform="translate(0 -2.99)"/><path class="cls-2" d="M223.85,263.27a10,10,0,0,1-9.75-7.86l-13.69-63.2-61.66-8.62a10,10,0,0,1-3.85-18.38l53.73-33L177.4,68.25A10,10,0,0,1,194,59.16l46.63,42.54,54.61-30.54A10,10,0,0,1,309.26,83.7l-24.82,59.69,45.27,44.83a10,10,0,0,1-8,17l-61.84-6-27,58.26A10,10,0,0,1,223.85,263.27ZM169,167.67l41.07,5.74a10,10,0,0,1,8.37,7.77l8.87,40.94,17.46-37.69a10,10,0,0,1,10-5.73l41,4-30.13-29.83a10,10,0,0,1-2.19-10.91l16.34-39.3-35.75,20a10,10,0,0,1-11.59-1.34L202.12,93.61l7.34,41.78a10,10,0,0,1-4.61,10.23Z" transform="translate(0 -2.99)"/><path class="cls-2" d="M304.6,287.34a10,10,0,0,1-8.37-4.53l-23-35.36a10,10,0,1,1,16.71-10.89l23,35.36a10,10,0,0,1-8.35,15.42Z" transform="translate(0 -2.99)"/><path class="cls-2" d="M235,64.4a10,10,0,0,1-10-10V13A10,10,0,1,1,245,13V54.43A10,10,0,0,1,235,64.4Z" transform="translate(0 -2.99)"/><path class="cls-2" d="M335,140.36a10,10,0,0,1-2.53-19.62l54-14.19a10,10,0,0,1,5.07,19.29l-54,14.19A9.89,9.89,0,0,1,335,140.36Z" transform="translate(0 -2.99)"/><path class="cls-2" d="M136.07,121.14a9.68,9.68,0,0,1-1.7-.15l-40-6.89a10,10,0,1,1,3.39-19.66l40,6.89a10,10,0,0,1-1.68,19.81Z" transform="translate(0 -2.99)"/></svg>